<?xml version="1.0" encoding="utf-8"?>
<!-- Generator: Adobe Illustrator 18.0.0, SVG Export Plug-In . SVG Version: 6.00 Build 0)  -->
<!DOCTYPE svg PUBLIC "-//W3C//DTD SVG 1.1//EN" "http://www.w3.org/Graphics/SVG/1.1/DTD/svg11.dtd">
<svg version="1.1" id="Layer_1" xmlns="http://www.w3.org/2000/svg" xmlns:xlink="http://www.w3.org/1999/xlink" x="0px" y="0px"
	 viewBox="0 0 328.6 182.4" enable-background="new 0 0 328.6 182.4" xml:space="preserve">
<g>
	<g>
		
			<path fill="#252324" stroke="#252324" stroke-width="13.8623" stroke-linecap="round" stroke-linejoin="round" stroke-miterlimit="10" d="
			M284.1,127.8l23.7,0.5c1.4,0,2.5-1.1,2.5-2.5v-7.1c0-1.4-1.1-2.5-2.5-2.5h-2.2l-12.3-40.7c-0.3-1-1.3-1.7-2.4-1.7h-13.6
			c-0.9,0-1.7,0.5-2.1,1.3l-6.5,6.5l-7.7,0.1v0c0-0.9-0.4-1.7-1.2-2.1l0,0c-1.9-1.6-3.9-2.9-5.9-3.9l0.1-0.6l5.5-5.5l0,0
			c0.7-0.4,1.1-1.2,1.1-2.1v-7.3c0-1.4-1.1-2.5-2.5-2.5h-2.3l-12.6-42c-0.3-1-1.3-1.8-2.4-1.8h-14c-0.7,0-1.4,0.3-1.8,0.8h-1.8
			l-7.9,7.9H191v-6.6c0-1.4-1.1-2.5-2.5-2.5h-14.2c-0.9,0-1.7,0.5-2.1,1.3l-0.2-0.1l-7.9,7.9h-9.8l-2.1-6.9c-0.3-1-1.3-1.8-2.4-1.8
			h-14c-0.8,0-1.6,0.4-2,1.1l-0.6-0.3l-7.9,7.9h-6.6v-6.4c0-1.4-1.1-2.5-2.5-2.5H102c-0.9,0-1.6,0.5-2.1,1.2l-0.4-0.2L94.5,20v-0.8
			c0-0.9-0.5-1.7-1.2-2.1c-0.4-0.2-0.8-0.4-8.8-2.7c-2.8-0.8-7.6-1.1-10.1-1.1c-5.6,0-10.1,1.6-13.5,4.7c-1.1,1-2,2.1-2.7,3.3l0,0
			l0,0c-1.5,2.6-2.2,5.7-1.8,9.1c0.5,5.8,3.8,10.4,9.7,13.9l2.8,8.2L68.1,53c-0.4-0.8-1.2-1.4-2.2-1.4h-7.3c-1.4,0-2.5,1.1-2.5,2.5
			v11.3c0,0.4,0.1,0.7,0.2,1l-0.2,0.3l4,10.4l-1.7,4.7H43.9l-6.6-6.6c-0.4-1-1.3-1.6-2.3-1.6H20.8c-1.4,0-2.5,1.1-2.5,2.5v7.1
			c0,1.4,1.1,2.5,2.5,2.5h0.4V116h-0.4c-1.4,0-2.5,1.1-2.5,2.5v7.1c0,1.4,1.1,2.5,2.5,2.5l0,0l24.3,0L284.1,127.8z"/>
		<g>
			<path fill="#FFFFFF" d="M57.8,67.7c8.2,2.7,13.9,2.7,16.9,2.7c6.8,0,12-2,15.4-5.8c2.9-3.3,4.1-7.3,3.7-12.1
				c-0.3-4.2-1.9-7.7-4.5-10.5c-2.5-2.7-6.3-5-11.4-6.9c-3.9-1.5-5.6-2.5-6.4-3.2c-0.8-0.7-1.2-1.6-1.4-2.7c-0.1-0.8,0.1-1.5,0.6-2
				c0.8-0.8,2.1-1.2,4-1.2c2.2,0,5.3,0.4,7.4,1v1.6c0,1.4,1.1,2.5,2.5,2.5H92c1.4,0,2.5-1.1,2.5-2.5v-9.4c0-0.9-0.5-1.7-1.2-2.1
				c-0.4-0.2-0.8-0.4-8.8-2.7c-2.8-0.8-7.6-1.1-10.1-1.1c-5.6,0-10.1,1.6-13.5,4.7c-3.5,3.2-5,7.4-4.5,12.4
				c0.7,7.7,6.2,13.4,16.5,17c3.6,1.3,5.2,2.5,6,3.3c0,0,0,0,0,0c0.7,0.7,1.1,1.6,1.2,2.8c0.2,1.7-0.5,2.5-1,2.9
				c-1,0.8-2.5,1.2-4.5,1.2c-0.8,0-1.5,0-2.3,0.1c-0.7,0-1.3,0.1-2,0.1c-0.7,0-1.3,0-1.8-0.1v-3.6c0-1.4-1.1-2.5-2.5-2.5h-7.3
				c-1.4,0-2.5,1.1-2.5,2.5v11.3C56.2,66.5,56.8,67.4,57.8,67.7z"/>
			<path fill="#FFFFFF" d="M212.2,60.2v7.3c0,1.4,1.1,2.5,2.5,2.5h9.3c1.1,0,2-0.7,2.4-1.7l3.2-10.7h12.8l3.3,10.7
				c0.3,1,1.3,1.7,2.3,1.7h10.2c1.4,0,2.5-1.1,2.5-2.5v-7.3c0-1.4-1.1-2.5-2.5-2.5h-2.3l-12.6-42c-0.3-1-1.3-1.8-2.4-1.8h-14
				c-1.4,0-2.5,1.1-2.5,2.5v6.7c0,0.9,0.5,1.8,1.3,2.2L216,57.8h-1.4C213.3,57.8,212.2,58.9,212.2,60.2z M233.5,44.3l2.4-8.1
				l2.4,8.1H233.5z"/>
			<path fill="#FFFFFF" d="M174.4,69.6h31.3c1.1,0,2-0.7,2.4-1.8l3.8-12.8c0.1-0.2,0.1-0.5,0.1-0.8c0-1.4-1.1-2.5-2.5-2.5l0,0h-8.6
				c-1.1,0-2,0.7-2.3,1.7l-1.3,3.9h-9.1V25.9h0.5c1.4,0,2.5-1.1,2.5-2.5v-7.3c0-1.4-1.1-2.5-2.5-2.5h-14.2c-1.4,0-2.5,1.1-2.5,2.5
				v7.3c0,1.4,1.1,2.5,2.5,2.5h0.5v31.5h-0.5c-1.4,0-2.5,1.1-2.5,2.5v7.3C171.9,68.5,173,69.6,174.4,69.6z"/>
			<path fill="#FFFFFF" d="M123.6,70h9.3c1.1,0,2-0.7,2.4-1.7l3.2-10.7h12.8l3.3,10.7c0.3,1,1.3,1.7,2.4,1.7h10.2
				c1.4,0,2.5-1.1,2.5-2.5v-7.3c0-1.4-1.1-2.5-2.5-2.5h-2.3l-12.6-42c-0.3-1-1.3-1.8-2.4-1.8h-14c-1.4,0-2.5,1.1-2.5,2.5v6.7
				c0,0.9,0.5,1.8,1.3,2.2L125,57.8h-1.4c-1.4,0-2.5,1.1-2.5,2.5v7.3C121.2,68.9,122.3,70,123.6,70z M142.5,44.3l2.4-8.1l2.4,8.1
				H142.5z"/>
			<path fill="#FFFFFF" d="M102,69.8h14.2c1.4,0,2.5-1.1,2.5-2.5V60c0-1.4-1.1-2.5-2.5-2.5h-0.5V26.1h0.5c1.4,0,2.5-1.1,2.5-2.5
				v-7.3c0-1.4-1.1-2.5-2.5-2.5H102c-1.4,0-2.5,1.1-2.5,2.5v7.3c0,1.4,1.1,2.5,2.5,2.5h0.5v31.5H102c-1.4,0-2.5,1.1-2.5,2.5v7.3
				C99.6,68.7,100.7,69.8,102,69.8z"/>
			<path fill="#FFFFFF" d="M307.9,116.3h-2.2l-12.3-40.7c-0.3-1-1.3-1.7-2.4-1.7h-13.6c-1.4,0-2.5,1.1-2.5,2.5v6.5
				c0,0.9,0.5,1.7,1.3,2.2l-9.4,31.4h-1.3c-1.4,0-2.5,1.1-2.5,2.5v7.1c0,1.4,1.1,2.5,2.5,2.5h9.1c1.1,0,2-0.7,2.3-1.8l3.1-10.4h12.3
				l3.2,10.4c0.3,1,1.3,1.7,2.4,1.7h9.9c1.4,0,2.5-1.1,2.5-2.5v-7.1C310.3,117.4,309.2,116.3,307.9,116.3z M288.5,103.2H284l2.2-7.5
				L288.5,103.2z"/>
			<path fill="#FFFFFF" d="M259.9,79.6L259.9,79.6c-5.3-4.5-11.5-6.7-18.6-6.7c-7.8,0-14.6,2.7-20.1,8.1c-5.5,5.4-8.4,12-8.4,19.6
				c0,7.6,2.8,14.2,8.4,19.6c5.5,5.3,12.3,8.1,20.1,8.1c6,0,12.3-2.3,18.7-6.8c0.7-0.5,1-1.2,1-2v-6.9c0-1.4-1.1-2.5-2.5-2.5h-7.1
				c-1.4,0-2.5,1.1-2.5,2.5v1.7c-2.4,1.2-4.9,1.8-7.7,1.8c-4.5,0-8-1.4-10.8-4.4c-2.7-2.9-4-6.5-4-11c0-4.5,1.3-8,4-11
				c2.8-3,6.3-4.4,10.8-4.4c2.8,0,5.3,0.6,7.7,1.8v1.7c0,1.4,1.1,2.5,2.5,2.5h7.1c1.4,0,2.5-1.1,2.5-2.5v-6.9
				C261.1,80.8,260.7,80,259.9,79.6z"/>
			<path fill="#FFFFFF" d="M213.5,83v-6.9c0-1.4-1.1-2.5-2.5-2.5h-13.4c-1.4,0-2.5,1.1-2.5,2.5V83c0,1.4,1.1,2.5,2.5,2.5h0.3V112
				c0,0.9-0.2,1.6-0.7,2.3c-0.5,0.6-1,1-1.7,1.1c-0.3,0-1.2,0.1-4.6,0.1c-3.9,0-4.8-0.1-5-0.1c-0.6-0.1-1.1-0.5-1.6-1
				c-0.5-0.7-0.8-1.4-0.8-2.4V85.5h0.3c1.4,0,2.5-1.1,2.5-2.5v-6.9c0-1.4-1.1-2.5-2.5-2.5h-13.4c-1.4,0-2.5,1.1-2.5,2.5V83
				c0,1.4,1.1,2.5,2.5,2.5h0.3v26.9c0,3.9,1.3,7.3,3.9,10.2c2.5,2.8,5.8,4.5,9.6,5c2.1,0.3,4.3,0.4,6.4,0.4c2.1,0,4.2-0.1,6.3-0.4
				c3.8-0.5,7.1-2.2,9.6-5c2.6-2.9,3.9-6.3,3.9-10.2V85.5h0.3C212.4,85.5,213.5,84.4,213.5,83z"/>
			<path fill="#FFFFFF" d="M166.3,110.5h-7.1c-1.4,0-2.5,1.1-2.5,2.5v3h-9.3V85.5h0.4c1.4,0,2.5-1.1,2.5-2.5v-7.1
				c0-1.4-1.1-2.5-2.5-2.5h-13.8c-1.4,0-2.5,1.1-2.5,2.5V83c0,1.4,1.1,2.5,2.5,2.5h0.4v30.4h-0.4c-1.4,0-2.5,1.1-2.5,2.5v7.1
				c0,1.4,1.1,2.5,2.5,2.5h32.3c1.4,0,2.5-1.1,2.5-2.5v-12.5C168.8,111.6,167.7,110.5,166.3,110.5z"/>
			<path fill="#FFFFFF" d="M126.8,116.3h-2.2l-12.3-40.7c-0.3-1-1.3-1.7-2.3-1.7H96.4c-1.4,0-2.5,1.1-2.5,2.5v6.5
				c0,0.9,0.5,1.7,1.3,2.2l-9.4,31.4h-1.3c-1.4,0-2.5,1.1-2.5,2.5v7.1c0,1.4,1.1,2.5,2.5,2.5h9.1c1.1,0,2-0.7,2.3-1.8l3.1-10.4h12.3
				l3.2,10.4c0.3,1,1.3,1.7,2.3,1.7h9.9c1.4,0,2.5-1.1,2.5-2.5v-7.1C129.3,117.4,128.2,116.3,126.8,116.3z M107.5,103.2H103l2.3-7.5
				L107.5,103.2z"/>
			<path fill="#FFFFFF" d="M77.4,73.6H63.2c-1,0-2,0.6-2.3,1.6l-11.8,32.3L37.3,75.2c-0.4-1-1.3-1.6-2.3-1.6H20.8
				c-1.4,0-2.5,1.1-2.5,2.5v7.1c0,1.4,1.1,2.5,2.5,2.5h0.4V116h-0.4c-1.4,0-2.5,1.1-2.5,2.5v7.1c0,1.4,1.1,2.5,2.5,2.5h13.8
				c1.4,0,2.5-1.1,2.5-2.5v-7.1c0-1.4-1.1-2.5-2.5-2.5h-0.4V103l8.5,23.3c0.4,1,1.3,1.6,2.3,1.6h8.3c1,0,2-0.6,2.3-1.6L64,103V116
				h-0.4c-1.4,0-2.5,1.1-2.5,2.5v7.1c0,1.4,1.1,2.5,2.5,2.5h13.8c1.4,0,2.5-1.1,2.5-2.5v-7.1c0-1.4-1.1-2.5-2.5-2.5H77V85.6h0.4
				c1.4,0,2.5-1.1,2.5-2.5v-7.1C79.9,74.7,78.8,73.6,77.4,73.6z"/>
		</g>
	</g>
	<g>
		<g>
			<path fill="#F7DA03" d="M312.7,176.1H16c-2,0-3.7-1.7-3.7-3.7v-23.2c0-2,1.7-3.7,3.7-3.7h296.7c2,0,3.7,1.7,3.7,3.7v23.2
				C316.4,174.4,314.8,176.1,312.7,176.1z"/>
		</g>
		<text transform="matrix(1 0 0 1 29.5872 168.1292)" fill="#333333" font-family="'GothamRounded-Bold'" font-size="19.2139">Centro de Entrenamiento</text>
	</g>
</g>
</svg>
