<?xml version="1.0" encoding="utf-8"?>
<!-- Generator: Adobe Illustrator 18.0.0, SVG Export Plug-In . SVG Version: 6.00 Build 0)  -->
<!DOCTYPE svg PUBLIC "-//W3C//DTD SVG 1.1//EN" "http://www.w3.org/Graphics/SVG/1.1/DTD/svg11.dtd">
<svg version="1.1" id="Layer_1" xmlns="http://www.w3.org/2000/svg" xmlns:xlink="http://www.w3.org/1999/xlink" x="0px" y="0px"
	 viewBox="0 0 275.9 44.7" enable-background="new 0 0 275.9 44.7" xml:space="preserve">
<g>
	<g>
		<g>
			
				<rect x="19.1" y="10.4" fill="#000100" stroke="#000100" stroke-width="0.5425" stroke-miterlimit="10" width="232.1" height="24.6"/>
			<g>
				<g>
					<g>
						
							<path fill="#FFFFFF" stroke="#000100" stroke-width="6.6013" stroke-linecap="round" stroke-linejoin="round" stroke-miterlimit="10" d="
							M11.7,35.1c4,1.3,6.7,1.3,8.2,1.3c3.3,0,5.8-1,7.5-2.8c1.4-1.6,2-3.6,1.8-5.9c-0.2-2-0.9-3.7-2.2-5.1
							c-1.2-1.3-3.1-2.4-5.5-3.4c-1.9-0.7-2.7-1.2-3.1-1.5c-0.4-0.3-0.6-0.8-0.7-1.3c0-0.4,0.1-0.7,0.3-1c0.4-0.4,1-0.6,1.9-0.6
							c1.1,0,2.6,0.2,3.6,0.5v0.8c0,0.7,0.5,1.2,1.2,1.2h3.6c0.7,0,1.2-0.5,1.2-1.2v-4.6c0-0.4-0.2-0.8-0.6-1
							c-0.2-0.1-0.4-0.2-4.3-1.3c-1.4-0.4-3.7-0.5-4.9-0.5c-2.7,0-4.9,0.8-6.5,2.3c-1.7,1.6-2.4,3.6-2.2,6c0.3,3.7,3,6.5,8,8.3
							c1.7,0.6,2.5,1.2,2.9,1.6c0,0,0,0,0,0c0.3,0.3,0.5,0.8,0.6,1.4c0.1,0.8-0.2,1.2-0.5,1.4c-0.5,0.4-1.2,0.6-2.2,0.6
							c-0.4,0-0.8,0-1.1,0c-0.3,0-0.6,0-1,0c-0.3,0-0.6,0-0.9-0.1v-1.7c0-0.7-0.5-1.2-1.2-1.2h-3.6c-0.7,0-1.2,0.5-1.2,1.2v5.5
							C10.9,34.5,11.3,34.9,11.7,35.1z"/>
						
							<path fill="#FFFFFF" stroke="#000100" stroke-width="6.6013" stroke-linecap="round" stroke-linejoin="round" stroke-miterlimit="10" d="
							M86.7,31.4V35c0,0.7,0.5,1.2,1.2,1.2h4.5c0.5,0,1-0.3,1.1-0.8l1.6-5.2h6.2l1.6,5.2c0.2,0.5,0.6,0.8,1.1,0.8h5
							c0.7,0,1.2-0.5,1.2-1.2v-3.6c0-0.7-0.5-1.2-1.2-1.2H108l-6.1-20.4c-0.1-0.5-0.6-0.8-1.1-0.8h-6.8c-0.7,0-1.2,0.5-1.2,1.2v3.2
							c0,0.5,0.3,0.9,0.6,1.1l-4.7,15.8h-0.7C87.3,30.2,86.7,30.8,86.7,31.4z M97.1,23.7l1.2-3.9l1.2,3.9H97.1z"/>
						
							<path fill="#FFFFFF" stroke="#000100" stroke-width="6.6013" stroke-linecap="round" stroke-linejoin="round" stroke-miterlimit="10" d="
							M68.4,36h15.2c0.5,0,1-0.3,1.1-0.9l1.8-6.2c0-0.1,0.1-0.2,0.1-0.4c0-0.7-0.5-1.2-1.2-1.2l0,0h-4.2c-0.5,0-1,0.3-1.1,0.8
							l-0.6,1.9H75V14.7h0.2c0.7,0,1.2-0.5,1.2-1.2V10c0-0.7-0.5-1.2-1.2-1.2h-6.9c-0.7,0-1.2,0.5-1.2,1.2v3.6
							c0,0.7,0.5,1.2,1.2,1.2h0.2v15.3h-0.2c-0.7,0-1.2,0.5-1.2,1.2v3.6C67.2,35.5,67.7,36,68.4,36z"/>
						
							<path fill="#FFFFFF" stroke="#000100" stroke-width="6.6013" stroke-linecap="round" stroke-linejoin="round" stroke-miterlimit="10" d="
							M43.7,36.2h4.5c0.5,0,1-0.3,1.1-0.8l1.6-5.2h6.2l1.6,5.2c0.2,0.5,0.6,0.8,1.1,0.8h5c0.7,0,1.2-0.5,1.2-1.2v-3.6
							c0-0.7-0.5-1.2-1.2-1.2h-1.1L57.6,9.9C57.5,9.3,57,9,56.5,9h-6.8c-0.7,0-1.2,0.5-1.2,1.2v3.2c0,0.5,0.3,0.9,0.6,1.1l-4.7,15.8
							h-0.7c-0.7,0-1.2,0.5-1.2,1.2V35C42.5,35.6,43,36.2,43.7,36.2z M52.9,23.7l1.2-3.9l1.2,3.9H52.9z"/>
						
							<path fill="#FFFFFF" stroke="#000100" stroke-width="6.6013" stroke-linecap="round" stroke-linejoin="round" stroke-miterlimit="10" d="
							M33.2,36.1h6.9c0.7,0,1.2-0.5,1.2-1.2v-3.6c0-0.7-0.5-1.2-1.2-1.2h-0.2V14.9h0.2c0.7,0,1.2-0.5,1.2-1.2v-3.6
							c0-0.7-0.5-1.2-1.2-1.2h-6.9c-0.7,0-1.2,0.5-1.2,1.2v3.6c0,0.7,0.5,1.2,1.2,1.2h0.2v15.3h-0.2c-0.7,0-1.2,0.5-1.2,1.2v3.6
							C32,35.5,32.6,36.1,33.2,36.1z"/>
					</g>
					<g>
						
							<path fill="#FFFFFF" stroke="#000100" stroke-width="6.6013" stroke-linecap="round" stroke-linejoin="round" stroke-miterlimit="10" d="
							M257,30.1H256l-6.1-20.4c-0.2-0.5-0.6-0.9-1.2-0.9h-6.8c-0.7,0-1.2,0.6-1.2,1.2v3.2c0,0.5,0.3,0.9,0.6,1.1l-4.7,15.7h-0.7
							c-0.7,0-1.2,0.5-1.2,1.2v3.6c0,0.7,0.6,1.2,1.2,1.2h4.5c0.5,0,1-0.4,1.2-0.9l1.6-5.2h6.2l1.6,5.2c0.2,0.5,0.6,0.9,1.2,0.9h5
							c0.7,0,1.2-0.6,1.2-1.2v-3.6C258.3,30.6,257.7,30.1,257,30.1z M247.4,23.5h-2.3l1.1-3.8L247.4,23.5z"/>
						
							<path fill="#FFFFFF" stroke="#000100" stroke-width="6.6013" stroke-linecap="round" stroke-linejoin="round" stroke-miterlimit="10" d="
							M233,11.7L233,11.7c-2.7-2.2-5.8-3.4-9.3-3.4c-3.9,0-7.3,1.4-10.1,4c-2.8,2.7-4.2,6-4.2,9.8c0,3.8,1.4,7.1,4.2,9.8
							c2.8,2.7,6.2,4,10.1,4c3,0,6.2-1.2,9.4-3.4c0.3-0.2,0.5-0.6,0.5-1v-3.5c0-0.7-0.6-1.2-1.2-1.2h-3.6c-0.7,0-1.2,0.6-1.2,1.2V29
							c-1.2,0.6-2.5,0.9-3.9,0.9c-2.2,0-4-0.7-5.4-2.2c-1.4-1.5-2-3.3-2-5.5c0-2.2,0.7-4,2-5.5c1.4-1.5,3.2-2.2,5.4-2.2
							c1.4,0,2.7,0.3,3.9,0.9v0.8c0,0.7,0.6,1.2,1.2,1.2h3.6c0.7,0,1.2-0.6,1.2-1.2v-3.5C233.6,12.3,233.4,11.9,233,11.7z"/>
						
							<path fill="#FFFFFF" stroke="#000100" stroke-width="6.6013" stroke-linecap="round" stroke-linejoin="round" stroke-miterlimit="10" d="
							M209.7,13.4V10c0-0.7-0.6-1.2-1.2-1.2h-6.7c-0.7,0-1.2,0.6-1.2,1.2v3.5c0,0.7,0.6,1.2,1.2,1.2h0.2v13.3c0,0.4-0.1,0.8-0.4,1.1
							c-0.2,0.3-0.5,0.5-0.8,0.6c-0.1,0-0.6,0-2.3,0c-1.9,0-2.4,0-2.5,0c-0.3-0.1-0.6-0.2-0.8-0.5c-0.3-0.3-0.4-0.7-0.4-1.2V14.6
							h0.2c0.7,0,1.2-0.5,1.2-1.2V10c0-0.7-0.6-1.2-1.2-1.2h-6.7c-0.7,0-1.2,0.6-1.2,1.2v3.5c0,0.7,0.6,1.2,1.2,1.2h0.2v13.5
							c0,1.9,0.7,3.7,2,5.1c1.3,1.4,2.9,2.3,4.8,2.5c1.1,0.1,2.2,0.2,3.2,0.2c1.1,0,2.1-0.1,3.2-0.2c1.9-0.2,3.5-1.1,4.8-2.5
							c1.3-1.5,2-3.2,2-5.1V14.6h0.2C209.2,14.6,209.7,14.1,209.7,13.4z"/>
						
							<path fill="#FFFFFF" stroke="#000100" stroke-width="6.6013" stroke-linecap="round" stroke-linejoin="round" stroke-miterlimit="10" d="
							M186.1,27.2h-3.6c-0.7,0-1.2,0.6-1.2,1.2v1.5h-4.7V14.6h0.2c0.7,0,1.2-0.5,1.2-1.2V9.9c0-0.7-0.6-1.2-1.2-1.2h-6.9
							c-0.7,0-1.2,0.6-1.2,1.2v3.6c0,0.7,0.6,1.2,1.2,1.2h0.2v15.3h-0.2c-0.7,0-1.2,0.6-1.2,1.2v3.6c0,0.7,0.6,1.2,1.2,1.2h16.2
							c0.7,0,1.2-0.6,1.2-1.2v-6.3C187.3,27.7,186.8,27.2,186.1,27.2z"/>
						
							<path fill="#FFFFFF" stroke="#000100" stroke-width="6.6013" stroke-linecap="round" stroke-linejoin="round" stroke-miterlimit="10" d="
							M166.3,30.1h-1.1l-6.1-20.4c-0.2-0.5-0.6-0.9-1.2-0.9H151c-0.7,0-1.2,0.6-1.2,1.2v3.2c0,0.5,0.3,0.9,0.6,1.1l-4.7,15.7h-0.7
							c-0.7,0-1.2,0.5-1.2,1.2v3.6c0,0.7,0.6,1.2,1.2,1.2h4.5c0.5,0,1-0.4,1.2-0.9l1.6-5.2h6.2l1.6,5.2c0.2,0.5,0.6,0.9,1.2,0.9h5
							c0.7,0,1.2-0.6,1.2-1.2v-3.6C167.5,30.6,167,30.1,166.3,30.1z M156.6,23.5h-2.3l1.1-3.8L156.6,23.5z"/>
						
							<path fill="#FFFFFF" stroke="#000100" stroke-width="6.6013" stroke-linecap="round" stroke-linejoin="round" stroke-miterlimit="10" d="
							M141.5,8.7h-7.1c-0.5,0-1,0.3-1.2,0.8l-5.9,16.2l-5.9-16.2c-0.2-0.5-0.6-0.8-1.2-0.8h-7.1c-0.7,0-1.2,0.6-1.2,1.2v3.5
							c0,0.7,0.5,1.2,1.2,1.2h0.2v15.2h-0.2c-0.7,0-1.2,0.6-1.2,1.2v3.6c0,0.7,0.5,1.2,1.2,1.2h6.9c0.7,0,1.2-0.6,1.2-1.2v-3.6
							c0-0.7-0.6-1.2-1.2-1.2h-0.2v-6.5l4.3,11.7c0.2,0.5,0.6,0.8,1.2,0.8h4.2c0.5,0,1-0.3,1.2-0.8l4.2-11.7v6.5h-0.2
							c-0.7,0-1.2,0.6-1.2,1.2v3.6c0,0.7,0.6,1.2,1.2,1.2h6.9c0.7,0,1.2-0.6,1.2-1.2v-3.6c0-0.7-0.6-1.2-1.2-1.2h-0.2V14.7h0.2
							c0.7,0,1.2-0.6,1.2-1.2V9.9C142.7,9.2,142.2,8.7,141.5,8.7z"/>
					</g>
				</g>
				<g>
					
						<path fill="#FFFFFF" stroke="#000100" stroke-width="6.6013" stroke-linecap="round" stroke-linejoin="round" stroke-miterlimit="10" d="
						M261.8,24.5L261.8,24.5c0.3-0.1,0.6-0.2,0.8-0.4c0.2-0.2,0.3-0.5,0.3-0.8c0-0.3-0.1-0.5-0.2-0.7c-0.1-0.2-0.3-0.4-0.5-0.4
						c-0.2-0.1-0.5-0.1-0.9-0.1h-2v4.6h0.6v-2h1.1c0.2,0,0.4,0.1,0.6,0.2c0.2,0.1,0.3,0.3,0.4,0.5l0.4,1.2h0.7l-0.5-1.2
						C262.4,24.9,262.2,24.6,261.8,24.5z M261.2,24.1h-1.4v-1.6h1.4c0.7,0,1,0.3,1,0.8c0,0.3-0.1,0.5-0.3,0.6
						C261.8,24.1,261.6,24.1,261.2,24.1z"/>
					
						<path fill="#FFFFFF" stroke="#000100" stroke-width="6.6013" stroke-linecap="round" stroke-linejoin="round" stroke-miterlimit="10" d="
						M261,20.4c-2.2,0-3.9,1.8-3.9,3.9s1.8,3.9,3.9,3.9c2.2,0,3.9-1.8,3.9-3.9S263.2,20.4,261,20.4z M261,27.8
						c-1.9,0-3.5-1.6-3.5-3.5c0-1.9,1.6-3.5,3.5-3.5c1.9,0,3.5,1.6,3.5,3.5C264.5,26.2,262.9,27.8,261,27.8z"/>
				</g>
			</g>
			<g>
				<g>
					<g>
						<path fill="#FFFFFF" d="M11.7,35.1c4,1.3,6.7,1.3,8.2,1.3c3.3,0,5.8-1,7.5-2.8c1.4-1.6,2-3.6,1.8-5.9c-0.2-2-0.9-3.7-2.2-5.1
							c-1.2-1.3-3.1-2.4-5.5-3.4c-1.9-0.7-2.7-1.2-3.1-1.5c-0.4-0.3-0.6-0.8-0.7-1.3c0-0.4,0.1-0.7,0.3-1c0.4-0.4,1-0.6,1.9-0.6
							c1.1,0,2.6,0.2,3.6,0.5v0.8c0,0.7,0.5,1.2,1.2,1.2h3.6c0.7,0,1.2-0.5,1.2-1.2v-4.6c0-0.4-0.2-0.8-0.6-1
							c-0.2-0.1-0.4-0.2-4.3-1.3c-1.4-0.4-3.7-0.5-4.9-0.5c-2.7,0-4.9,0.8-6.5,2.3c-1.7,1.6-2.4,3.6-2.2,6c0.3,3.7,3,6.5,8,8.3
							c1.7,0.6,2.5,1.2,2.9,1.6c0,0,0,0,0,0c0.3,0.3,0.5,0.8,0.6,1.4c0.1,0.8-0.2,1.2-0.5,1.4c-0.5,0.4-1.2,0.6-2.2,0.6
							c-0.4,0-0.8,0-1.1,0c-0.3,0-0.6,0-1,0c-0.3,0-0.6,0-0.9-0.1v-1.7c0-0.7-0.5-1.2-1.2-1.2h-3.6c-0.7,0-1.2,0.5-1.2,1.2v5.5
							C10.9,34.5,11.3,34.9,11.7,35.1z"/>
						<path fill="#FFFFFF" d="M86.7,31.4V35c0,0.7,0.5,1.2,1.2,1.2h4.5c0.5,0,1-0.3,1.1-0.8l1.6-5.2h6.2l1.6,5.2
							c0.2,0.5,0.6,0.8,1.1,0.8h5c0.7,0,1.2-0.5,1.2-1.2v-3.6c0-0.7-0.5-1.2-1.2-1.2H108l-6.1-20.4c-0.1-0.5-0.6-0.8-1.1-0.8h-6.8
							c-0.7,0-1.2,0.5-1.2,1.2v3.2c0,0.5,0.3,0.9,0.6,1.1l-4.7,15.8h-0.7C87.3,30.2,86.7,30.8,86.7,31.4z M97.1,23.7l1.2-3.9
							l1.2,3.9H97.1z"/>
						<path fill="#FFFFFF" d="M68.4,36h15.2c0.5,0,1-0.3,1.1-0.9l1.8-6.2c0-0.1,0.1-0.2,0.1-0.4c0-0.7-0.5-1.2-1.2-1.2l0,0h-4.2
							c-0.5,0-1,0.3-1.1,0.8l-0.6,1.9H75V14.7h0.2c0.7,0,1.2-0.5,1.2-1.2V10c0-0.7-0.5-1.2-1.2-1.2h-6.9c-0.7,0-1.2,0.5-1.2,1.2v3.6
							c0,0.7,0.5,1.2,1.2,1.2h0.2v15.3h-0.2c-0.7,0-1.2,0.5-1.2,1.2v3.6C67.2,35.5,67.7,36,68.4,36z"/>
						<path fill="#FFFFFF" d="M43.7,36.2h4.5c0.5,0,1-0.3,1.1-0.8l1.6-5.2h6.2l1.6,5.2c0.2,0.5,0.6,0.8,1.1,0.8h5
							c0.7,0,1.2-0.5,1.2-1.2v-3.6c0-0.7-0.5-1.2-1.2-1.2h-1.1L57.6,9.9C57.5,9.3,57,9,56.5,9h-6.8c-0.7,0-1.2,0.5-1.2,1.2v3.2
							c0,0.5,0.3,0.9,0.6,1.1l-4.7,15.8h-0.7c-0.7,0-1.2,0.5-1.2,1.2V35C42.5,35.6,43,36.2,43.7,36.2z M52.9,23.7l1.2-3.9l1.2,3.9
							H52.9z"/>
						<path fill="#FFFFFF" d="M33.2,36.1h6.9c0.7,0,1.2-0.5,1.2-1.2v-3.6c0-0.7-0.5-1.2-1.2-1.2h-0.2V14.9h0.2
							c0.7,0,1.2-0.5,1.2-1.2v-3.6c0-0.7-0.5-1.2-1.2-1.2h-6.9c-0.7,0-1.2,0.5-1.2,1.2v3.6c0,0.7,0.5,1.2,1.2,1.2h0.2v15.3h-0.2
							c-0.7,0-1.2,0.5-1.2,1.2v3.6C32,35.5,32.6,36.1,33.2,36.1z"/>
					</g>
					<g>
						<path fill="#FFFFFF" d="M257,30.1H256l-6.1-20.4c-0.2-0.5-0.6-0.9-1.2-0.9h-6.8c-0.7,0-1.2,0.6-1.2,1.2v3.2
							c0,0.5,0.3,0.9,0.6,1.1l-4.7,15.7h-0.7c-0.7,0-1.2,0.5-1.2,1.2v3.6c0,0.7,0.6,1.2,1.2,1.2h4.5c0.5,0,1-0.4,1.2-0.9l1.6-5.2
							h6.2l1.6,5.2c0.2,0.5,0.6,0.9,1.2,0.9h5c0.7,0,1.2-0.6,1.2-1.2v-3.6C258.3,30.6,257.7,30.1,257,30.1z M247.4,23.5h-2.3
							l1.1-3.8L247.4,23.5z"/>
						<path fill="#FFFFFF" d="M233,11.7L233,11.7c-2.7-2.2-5.8-3.4-9.3-3.4c-3.9,0-7.3,1.4-10.1,4c-2.8,2.7-4.2,6-4.2,9.8
							c0,3.8,1.4,7.1,4.2,9.8c2.8,2.7,6.2,4,10.1,4c3,0,6.2-1.2,9.4-3.4c0.3-0.2,0.5-0.6,0.5-1v-3.5c0-0.7-0.6-1.2-1.2-1.2h-3.6
							c-0.7,0-1.2,0.6-1.2,1.2V29c-1.2,0.6-2.5,0.9-3.9,0.9c-2.2,0-4-0.7-5.4-2.2c-1.4-1.5-2-3.3-2-5.5c0-2.2,0.7-4,2-5.5
							c1.4-1.5,3.2-2.2,5.4-2.2c1.4,0,2.7,0.3,3.9,0.9v0.8c0,0.7,0.6,1.2,1.2,1.2h3.6c0.7,0,1.2-0.6,1.2-1.2v-3.5
							C233.6,12.3,233.4,11.9,233,11.7z"/>
						<path fill="#FFFFFF" d="M209.7,13.4V10c0-0.7-0.6-1.2-1.2-1.2h-6.7c-0.7,0-1.2,0.6-1.2,1.2v3.5c0,0.7,0.6,1.2,1.2,1.2h0.2
							v13.3c0,0.4-0.1,0.8-0.4,1.1c-0.2,0.3-0.5,0.5-0.8,0.6c-0.1,0-0.6,0-2.3,0c-1.9,0-2.4,0-2.5,0c-0.3-0.1-0.6-0.2-0.8-0.5
							c-0.3-0.3-0.4-0.7-0.4-1.2V14.6h0.2c0.7,0,1.2-0.5,1.2-1.2V10c0-0.7-0.6-1.2-1.2-1.2h-6.7c-0.7,0-1.2,0.6-1.2,1.2v3.5
							c0,0.7,0.6,1.2,1.2,1.2h0.2v13.5c0,1.9,0.7,3.7,2,5.1c1.3,1.4,2.9,2.3,4.8,2.5c1.1,0.1,2.2,0.2,3.2,0.2c1.1,0,2.1-0.1,3.2-0.2
							c1.9-0.2,3.5-1.1,4.8-2.5c1.3-1.5,2-3.2,2-5.1V14.6h0.2C209.2,14.6,209.7,14.1,209.7,13.4z"/>
						<path fill="#FFFFFF" d="M186.1,27.2h-3.6c-0.7,0-1.2,0.6-1.2,1.2v1.5h-4.7V14.6h0.2c0.7,0,1.2-0.5,1.2-1.2V9.9
							c0-0.7-0.6-1.2-1.2-1.2h-6.9c-0.7,0-1.2,0.6-1.2,1.2v3.6c0,0.7,0.6,1.2,1.2,1.2h0.2v15.3h-0.2c-0.7,0-1.2,0.6-1.2,1.2v3.6
							c0,0.7,0.6,1.2,1.2,1.2h16.2c0.7,0,1.2-0.6,1.2-1.2v-6.3C187.3,27.7,186.8,27.2,186.1,27.2z"/>
						<path fill="#FFFFFF" d="M166.3,30.1h-1.1l-6.1-20.4c-0.2-0.5-0.6-0.9-1.2-0.9H151c-0.7,0-1.2,0.6-1.2,1.2v3.2
							c0,0.5,0.3,0.9,0.6,1.1l-4.7,15.7h-0.7c-0.7,0-1.2,0.5-1.2,1.2v3.6c0,0.7,0.6,1.2,1.2,1.2h4.5c0.5,0,1-0.4,1.2-0.9l1.6-5.2
							h6.2l1.6,5.2c0.2,0.5,0.6,0.9,1.2,0.9h5c0.7,0,1.2-0.6,1.2-1.2v-3.6C167.5,30.6,167,30.1,166.3,30.1z M156.6,23.5h-2.3
							l1.1-3.8L156.6,23.5z"/>
						<path fill="#FFFFFF" d="M141.5,8.7h-7.1c-0.5,0-1,0.3-1.2,0.8l-5.9,16.2l-5.9-16.2c-0.2-0.5-0.6-0.8-1.2-0.8h-7.1
							c-0.7,0-1.2,0.6-1.2,1.2v3.5c0,0.7,0.5,1.2,1.2,1.2h0.2v15.2h-0.2c-0.7,0-1.2,0.6-1.2,1.2v3.6c0,0.7,0.5,1.2,1.2,1.2h6.9
							c0.7,0,1.2-0.6,1.2-1.2v-3.6c0-0.7-0.6-1.2-1.2-1.2h-0.2v-6.5l4.3,11.7c0.2,0.5,0.6,0.8,1.2,0.8h4.2c0.5,0,1-0.3,1.2-0.8
							l4.2-11.7v6.5h-0.2c-0.7,0-1.2,0.6-1.2,1.2v3.6c0,0.7,0.6,1.2,1.2,1.2h6.9c0.7,0,1.2-0.6,1.2-1.2v-3.6c0-0.7-0.6-1.2-1.2-1.2
							h-0.2V14.7h0.2c0.7,0,1.2-0.6,1.2-1.2V9.9C142.7,9.2,142.2,8.7,141.5,8.7z"/>
					</g>
				</g>
				<g>
					<path fill="#FFFFFF" d="M261.8,24.5L261.8,24.5c0.3-0.1,0.6-0.2,0.8-0.4c0.2-0.2,0.3-0.5,0.3-0.8c0-0.3-0.1-0.5-0.2-0.7
						c-0.1-0.2-0.3-0.4-0.5-0.4c-0.2-0.1-0.5-0.1-0.9-0.1h-2v4.6h0.6v-2h1.1c0.2,0,0.4,0.1,0.6,0.2c0.2,0.1,0.3,0.3,0.4,0.5l0.4,1.2
						h0.7l-0.5-1.2C262.4,24.9,262.2,24.6,261.8,24.5z M261.2,24.1h-1.4v-1.6h1.4c0.7,0,1,0.3,1,0.8c0,0.3-0.1,0.5-0.3,0.6
						C261.8,24.1,261.6,24.1,261.2,24.1z"/>
					<path fill="#FFFFFF" d="M261,20.4c-2.2,0-3.9,1.8-3.9,3.9s1.8,3.9,3.9,3.9c2.2,0,3.9-1.8,3.9-3.9S263.2,20.4,261,20.4z
						 M261,27.8c-1.9,0-3.5-1.6-3.5-3.5c0-1.9,1.6-3.5,3.5-3.5c1.9,0,3.5,1.6,3.5,3.5C264.5,26.2,262.9,27.8,261,27.8z"/>
				</g>
			</g>
		</g>
	</g>
</g>
</svg>
